<?xml version="1.0" encoding="UTF-8"?>
<svg version="1.1" xmlns="http://www.w3.org/2000/svg" width="263" height="396">
<path d="M0 0 C2.89167854 1.17852082 5.30713522 2.84584824 7.80859375 4.6953125 C8.54464844 5.23800781 9.28070313 5.78070313 10.0390625 6.33984375 C10.83054688 6.92894531 11.62203125 7.51804687 12.4375 8.125 C13.27152344 8.74246094 14.10554687 9.35992187 14.96484375 9.99609375 C22.07668835 15.27706169 29.11975807 20.64670474 36.15332031 26.03125 C41.9508256 30.46224629 47.79809227 34.81709715 53.6875 39.125 C60.63845489 44.21162593 67.46032026 49.43997185 74.23779297 54.75488281 C79.52851105 58.89023616 84.89381119 62.90911956 90.3125 66.875 C97.39980782 72.06560009 104.43940991 77.31460277 111.4375 82.625 C112.33186768 83.30030762 113.22623535 83.97561523 114.14770508 84.67138672 C114.98454834 85.30834473 115.8213916 85.94530273 116.68359375 86.6015625 C117.79045532 87.44195068 117.79045532 87.44195068 118.91967773 88.29931641 C121.07063383 90.05774384 123.03547981 92.03547981 125 94 C43.16 94 -38.68 94 -123 94 C-121.88024077 90.64072231 -121.26397398 90.19085244 -118.484375 88.20703125 C-117.36579102 87.39782227 -117.36579102 87.39782227 -116.22460938 86.57226562 C-115.40798828 85.99154297 -114.59136719 85.41082031 -113.75 84.8125 C-112.00402035 83.54981814 -110.25927228 82.28543195 -108.515625 81.01953125 C-107.60619141 80.36033691 -106.69675781 79.70114258 -105.75976562 79.02197266 C-101.28963339 75.74688108 -96.89618709 72.37333215 -92.5 69 C-85.11434591 63.34548572 -77.66803429 57.78528264 -70.1640625 52.2890625 C-64.22328567 47.92722968 -58.3524674 43.47945452 -52.5 39 C-45.12605384 33.35601188 -37.69463683 27.8020438 -30.20141602 22.31762695 C-22.95155861 16.99740678 -15.80499807 11.54497553 -8.67578125 6.06445312 C-7.41121094 5.09475586 -7.41121094 5.09475586 -6.12109375 4.10546875 C-5.3727124 3.52949951 -4.62433105 2.95353027 -3.85327148 2.36010742 C-2 1 -2 1 0 0 Z " fill="#D91C31" transform="translate(127,0)"/>
<path d="M0 0 C12.973125 -0.04125 25.94625 -0.0825 39.3125 -0.125 C43.38891846 -0.14320801 47.46533691 -0.16141602 51.6652832 -0.18017578 C56.69372559 -0.18920898 56.69372559 -0.18920898 59.05754089 -0.19088745 C60.68706865 -0.19393222 62.31659227 -0.20091071 63.9460907 -0.21115112 C91.30039827 -0.37426644 91.30039827 -0.37426644 100.94140625 8.859375 C109.27458817 17.83624738 110.19223802 26.83907433 110.25 38.6875 C110.270625 39.72583984 110.29125 40.76417969 110.3125 41.83398438 C110.36612065 52.5246009 108.34490697 61.03077594 101 69 C98.125 71.5 98.125 71.5 96 73 C96.50789063 73.36609375 97.01578125 73.7321875 97.5390625 74.109375 C104.67805588 79.72431361 109.21428036 86.61382465 110.54248047 95.71875 C110.69915409 99.0234413 110.75492451 102.29332757 110.67236328 105.60058594 C110.62485584 107.63116166 110.6313239 109.6565023 110.64453125 111.6875 C110.53370314 121.94413736 108.93865854 130.75686371 101.77734375 138.46484375 C94.63529319 144.63369181 87.75519544 146.15485012 78.55957031 146.11352539 C77.26530687 146.11370619 77.26530687 146.11370619 75.9448967 146.11389065 C73.15594644 146.11314513 70.36706328 146.10553332 67.578125 146.09765625 C65.85465528 146.09618571 64.1311851 146.09516569 62.40771484 146.09460449 C56.02180308 146.08936457 49.63590088 146.07540335 43.25 146.0625 C28.9775 146.041875 14.705 146.02125 0 146 C0 97.82 0 49.64 0 0 Z M25 23 C25 35.87 25 48.74 25 62 C32.31439965 62.06888343 39.62767306 62.12861574 46.94213867 62.16479492 C49.4301332 62.17987761 51.91810117 62.20034654 54.40600586 62.22631836 C57.98297688 62.26272337 61.55959622 62.27973184 65.13671875 62.29296875 C66.24834885 62.30845261 67.35997894 62.32393646 68.5052948 62.33988953 C69.54599625 62.34011612 70.58669769 62.34034271 71.65893555 62.34057617 C72.5716069 62.34723801 73.48427826 62.35389984 74.42460632 62.36076355 C77.5860707 61.91790267 79.42964314 60.86923684 82 59 C85.29886971 54.05169543 84.36895625 48.43908454 84.375 42.625 C84.41173828 40.77648437 84.41173828 40.77648437 84.44921875 38.890625 C84.45308594 37.70210937 84.45695312 36.51359375 84.4609375 35.2890625 C84.47326416 33.66025146 84.47326416 33.66025146 84.48583984 31.99853516 C83.88480357 28.28902386 82.6285364 26.64161666 80 24 C76.99633486 22.99877829 75.02260407 22.87887989 71.88598633 22.88647461 C70.32470757 22.88658791 70.32470757 22.88658791 68.73188782 22.88670349 C67.60993515 22.89186478 66.48798248 22.89702606 65.33203125 22.90234375 C64.18208176 22.9037587 63.03213226 22.90517365 61.84733582 22.90663147 C58.16903092 22.91223571 54.49078655 22.92478896 50.8125 22.9375 C48.32096442 22.94251445 45.82942789 22.94707745 43.33789062 22.95117188 C37.22521825 22.96135627 31.11267701 22.98093099 25 23 Z M25 85 C25 97.87 25 110.74 25 124 C32.31439965 124.06888343 39.62767306 124.12861574 46.94213867 124.16479492 C49.4301332 124.17987761 51.91810117 124.20034654 54.40600586 124.22631836 C57.98297688 124.26272337 61.55959622 124.27973184 65.13671875 124.29296875 C66.24834885 124.30845261 67.35997894 124.32393646 68.5052948 124.33988953 C69.54599625 124.34011612 70.58669769 124.34034271 71.65893555 124.34057617 C72.5716069 124.34723801 73.48427826 124.35389984 74.42460632 124.36076355 C78.43995979 123.79828909 81.09551812 121.99729989 83.7890625 119.02734375 C85.68948299 114.27629253 85.43217325 109.6286856 85.375 104.5625 C85.38660156 103.53833984 85.39820313 102.51417969 85.41015625 101.45898438 C85.3887295 95.94159705 85.24794827 91.6889394 82 87 C78.65383108 84.76922072 77.60406041 84.75475963 73.70239258 84.77294922 C72.62149857 84.77310028 71.54060455 84.77325134 70.42695618 84.77340698 C68.67840584 84.78889084 68.67840584 84.78889084 66.89453125 84.8046875 C65.70018967 84.8075174 64.50584808 84.81034729 63.27531433 84.81326294 C59.45427503 84.82447323 55.63346866 84.84957963 51.8125 84.875 C49.22461276 84.88502869 46.63672184 84.89415473 44.04882812 84.90234375 C37.69905644 84.92271517 31.34978949 84.96186313 25 85 Z " fill="#D91C31" transform="translate(141,124)"/>
<path d="M0 0 C1.27177094 -0.00953201 2.54354187 -0.01906403 3.85385132 -0.02888489 C5.22499622 -0.0286234 6.59614113 -0.02768604 7.96728516 -0.02612305 C9.39303714 -0.03001692 10.81878798 -0.034353 12.24453735 -0.03910828 C15.22507496 -0.04654471 18.20549406 -0.04629824 21.18603516 -0.04101562 C24.98421574 -0.03522742 28.78190766 -0.05214842 32.58000755 -0.0753603 C35.5227639 -0.0901741 38.46540465 -0.09095897 41.40819168 -0.08785057 C42.80747062 -0.08836005 44.20675667 -0.09352682 45.60599899 -0.10366249 C58.04642575 -0.18272332 66.06325582 1.07794487 75.20947266 9.7980957 C81.73104467 17.23456451 82.52978376 25.72613534 82.54248047 35.22070312 C82.54992783 36.55832703 82.54992783 36.55832703 82.55752563 37.92297363 C82.57210465 40.86703267 82.57894285 43.81103778 82.58447266 46.75512695 C82.59022845 48.80910747 82.59598613 50.86308798 82.60174561 52.91706848 C82.61224407 57.22352345 82.61809401 61.52995982 82.62158203 65.83642578 C82.62705845 71.33616678 82.65107325 76.83565918 82.67955399 82.33532238 C82.69824297 86.57943931 82.70338934 90.82349716 82.70491791 95.06765175 C82.7079318 97.09410267 82.71591732 99.12055286 82.72910309 101.14696312 C82.74629165 103.99204396 82.74425205 106.83652794 82.73779297 109.68164062 C82.74700775 110.50745132 82.75622253 111.33326202 82.76571655 112.18409729 C82.71035798 120.02729651 80.4872745 127.10713472 77.38134766 134.2746582 C77.79497559 134.76345459 78.20860352 135.25225098 78.63476562 135.75585938 C80.51531744 137.98574706 82.38587356 140.223812 84.25634766 142.4621582 C84.90732422 143.23108398 85.55830078 144.00000977 86.22900391 144.79223633 C86.85419922 145.54311523 87.47939453 146.29399414 88.12353516 147.06762695 C88.69958496 147.7536499 89.27563477 148.43967285 89.86914062 149.14648438 C91.49319104 151.43205872 92.44380947 153.64110136 93.38134766 156.2746582 C88.8824688 156.53763224 84.38557633 156.69640106 79.88134766 156.8371582 C77.97869141 156.95027344 77.97869141 156.95027344 76.03759766 157.06567383 C66.75700101 157.28318781 66.75700101 157.28318781 62.68994141 154.30151367 C57.38134766 148.46042209 57.38134766 148.46042209 57.38134766 145.2746582 C56.58700821 145.28354065 55.79266876 145.2924231 54.97425842 145.30157471 C47.45714646 145.38200645 39.94024566 145.44276675 32.42281437 145.48190689 C28.55878781 145.50270638 24.69511935 145.53088209 20.83129883 145.57641602 C17.09652161 145.6201495 13.36208698 145.64385264 9.62707329 145.65416718 C8.20821178 145.66150963 6.78936722 145.6758469 5.37065315 145.69757843 C-6.13097187 145.86661454 -14.27107931 144.25998532 -22.82568359 136.3371582 C-29.55357244 128.59788737 -30.76662303 120.17121497 -30.77978516 110.32861328 C-30.78475006 109.43686401 -30.78971497 108.54511475 -30.79483032 107.62634277 C-30.80940933 104.68228374 -30.81624753 101.73827863 -30.82177734 98.79418945 C-30.82753314 96.74020894 -30.83329082 94.68622843 -30.83905029 92.63224792 C-30.84954875 88.32579296 -30.8553987 84.01935659 -30.85888672 79.71289062 C-30.86436313 74.21314963 -30.88837794 68.71365723 -30.91685867 63.21399403 C-30.93554766 58.9698771 -30.94069403 54.72581925 -30.9422226 50.48166466 C-30.94523649 48.45521374 -30.95322201 46.42876355 -30.96640778 44.40235329 C-30.98359634 41.55727245 -30.98155673 38.71278846 -30.97509766 35.86767578 C-30.98431244 35.04186508 -30.99352722 34.21605438 -31.00302124 33.36521912 C-30.93480276 23.70003031 -28.3558538 15.34568496 -21.61865234 8.2746582 C-15.13208851 2.34182543 -8.8820145 0.03680026 0 0 Z M-2.61865234 25.2746582 C-5.25798351 29.06012116 -4.90718513 33.20425003 -4.89331055 37.63574219 C-4.89842148 38.47685547 -4.90353241 39.31796875 -4.90879822 40.18457031 C-4.92269166 42.96337002 -4.92173766 45.74192165 -4.91943359 48.52075195 C-4.92332061 50.45361931 -4.92765529 52.38648581 -4.93241882 54.3193512 C-4.93988046 58.37031829 -4.93959011 62.42119823 -4.93432617 66.47216797 C-4.92853106 71.66194249 -4.94546385 76.85136018 -4.96867085 82.04107571 C-4.98340646 86.03280216 -4.98428013 90.02444265 -4.98116112 94.01619148 C-4.9816744 95.92954274 -4.98691339 97.8428988 -4.99697304 99.75622368 C-5.009317 102.43244456 -5.00255814 105.10796985 -4.9909668 107.78417969 C-4.99861053 108.57343338 -5.00625427 109.36268707 -5.01412964 110.17585754 C-4.97061045 114.72440949 -4.41661202 117.64597536 -1.61865234 121.2746582 C1.97186551 124.06879878 6.304033 123.52843401 10.64697266 123.4699707 C11.8370694 123.46572586 11.8370694 123.46572586 13.0512085 123.46139526 C15.57807683 123.45022599 18.10458697 123.42512764 20.63134766 123.3996582 C22.34748836 123.38962419 24.06363464 123.38049907 25.77978516 123.37231445 C29.98044339 123.35029734 34.18083485 123.31579007 38.38134766 123.2746582 C34.61828434 118.15277999 30.72286237 113.20897016 26.56884766 108.3996582 C21.51281317 102.53758924 21.51281317 102.53758924 20.38134766 100.2746582 C24.56338007 100.26931375 28.74276466 100.30306681 32.92407227 100.37231445 C34.34487497 100.39042827 35.76585319 100.39805127 37.18676758 100.39477539 C49.07047517 100.37812571 49.07047517 100.37812571 52.41894531 102.66821289 C53.77587891 104.3293457 53.77587891 104.3293457 55.38134766 107.2746582 C55.71134766 107.2746582 56.04134766 107.2746582 56.38134766 107.2746582 C56.4508806 97.19111931 56.5041757 87.10763754 56.53678417 77.02390766 C56.5524352 72.34153584 56.57366322 67.65932815 56.60766602 62.97705078 C56.64027951 58.45776444 56.65820491 53.9386359 56.66597939 49.41924095 C56.67151932 47.69566553 56.68233749 45.97209866 56.69853783 44.24859047 C56.72033879 41.8330181 56.7233135 39.41809644 56.72192383 37.00244141 C56.73270966 36.29106018 56.74349548 35.57967896 56.75460815 34.84674072 C56.72749084 30.48601875 56.13934239 27.69203212 53.38134766 24.2746582 C50.49510921 22.30116044 48.14484265 22.01961557 44.69213867 22 C43.76760391 21.99046799 42.84306915 21.98093597 41.89051819 21.97111511 C40.40291237 21.97248222 40.40291237 21.97248222 38.88525391 21.97387695 C37.34670998 21.96744926 37.34670998 21.96744926 35.77708435 21.96089172 C33.60929095 21.95515238 31.44147829 21.95464525 29.27368164 21.95898438 C25.95962622 21.96214316 22.64646453 21.93868374 19.33251953 21.91333008 C17.22509878 21.91105692 15.11767563 21.91035367 13.01025391 21.91137695 C12.02054092 21.90216721 11.03082794 21.89295746 10.01112366 21.88346863 C3.16936225 21.88146492 3.16936225 21.88146492 -2.61865234 25.2746582 Z " fill="#D91C31" transform="translate(34.61865234375,124.725341796875)"/>
<path d="M0 0 C5.3521875 -0.0928125 5.3521875 -0.0928125 10.8125 -0.1875 C11.93374268 -0.21481201 13.05498535 -0.24212402 14.21020508 -0.27026367 C15.53894653 -0.28150269 15.53894653 -0.28150269 16.89453125 -0.29296875 C18.25348511 -0.31653442 18.25348511 -0.31653442 19.63989258 -0.34057617 C22 0 22 0 23.79638672 1.35620117 C25.54188636 3.74006508 25.36349695 5.58140526 25.3125 8.5 C25.30863281 9.4590625 25.30476563 10.418125 25.30078125 11.40625 C25 14 25 14 23 17 C23.515625 17.639375 24.03125 18.27875 24.5625 18.9375 C26.50041845 23.06610886 26.28922191 26.64275633 25 31 C23.30372304 33.2423457 22.45869241 33.93380822 19.63989258 34.34057617 C18.73392334 34.32486572 17.8279541 34.30915527 16.89453125 34.29296875 C16.00870361 34.28547607 15.12287598 34.2779834 14.21020508 34.27026367 C13.0889624 34.24295166 11.96771973 34.21563965 10.8125 34.1875 C7.244375 34.125625 3.67625 34.06375 0 34 C0 22.78 0 11.56 0 0 Z M4 4 C4 7.63 4 11.26 4 15 C6.27024968 15.08097324 8.54132075 15.13917704 10.8125 15.1875 C12.70935547 15.23970703 12.70935547 15.23970703 14.64453125 15.29296875 C17.92001733 15.27325069 17.92001733 15.27325069 19.96484375 13.71484375 C21.72228635 10.8034577 20.70581978 8.176189 20 5 C18.83722968 3.60843516 18.83722968 3.60843516 15.62109375 3.90234375 C14.22652923 3.90901631 12.83198257 3.92097468 11.4375 3.9375 C10.72658203 3.94201172 10.01566406 3.94652344 9.28320312 3.95117188 C7.52209987 3.96299136 5.76103964 3.98092737 4 4 Z M4 19 C4 22.63 4 26.26 4 30 C6.45862401 30.05383848 8.9160755 30.09359038 11.375 30.125 C12.07367188 30.14175781 12.77234375 30.15851563 13.4921875 30.17578125 C15.32897486 30.19344267 17.16601963 30.10303261 19 30 C21.37994368 28.05667668 21.37994368 28.05667668 21.25 24.5 C21.37994368 20.94332332 21.37994368 20.94332332 19 19 C16.41935871 18.85502015 13.95056116 18.81322455 11.375 18.875 C10.66859375 18.88402344 9.9621875 18.89304687 9.234375 18.90234375 C7.48943902 18.92592397 5.74467705 18.96179539 4 19 Z " fill="#D91C31" transform="translate(5,310)"/>
<path d="M0 0 C1.31871094 -0.00580078 1.31871094 -0.00580078 2.6640625 -0.01171875 C3.57929688 -0.00011719 4.49453125 0.01148438 5.4375 0.0234375 C6.81035156 0.00603516 6.81035156 0.00603516 8.2109375 -0.01171875 C9.09007812 -0.00785156 9.96921875 -0.00398438 10.875 0 C12.07962891 0.00507568 12.07962891 0.00507568 13.30859375 0.01025391 C15.93424121 0.48901302 16.82775124 1.30617842 18.4375 3.3984375 C18.82828556 6.12351548 18.57366953 8.62965706 18.4375 11.3984375 C17.1175 11.3984375 15.7975 11.3984375 14.4375 11.3984375 C13.7775 9.4184375 13.1175 7.4384375 12.4375 5.3984375 C7.8175 5.3984375 3.1975 5.3984375 -1.5625 5.3984375 C-2.75057993 7.77459736 -2.69164522 9.2496117 -2.6953125 11.8984375 C-2.69660156 12.7853125 -2.69789063 13.6721875 -2.69921875 14.5859375 C-2.69535156 15.5140625 -2.69148437 16.4421875 -2.6875 17.3984375 C-2.69136719 18.3265625 -2.69523438 19.2546875 -2.69921875 20.2109375 C-2.69792969 21.0978125 -2.69664062 21.9846875 -2.6953125 22.8984375 C-2.69418457 23.713125 -2.69305664 24.5278125 -2.69189453 25.3671875 C-2.69051503 27.46694702 -2.69051503 27.46694702 -1.5625 29.3984375 C3.0575 29.3984375 7.6775 29.3984375 12.4375 29.3984375 C13.0975 26.4284375 13.7575 23.4584375 14.4375 20.3984375 C10.4775 20.3984375 6.5175 20.3984375 2.4375 20.3984375 C2.4375 19.0784375 2.4375 17.7584375 2.4375 16.3984375 C7.7175 16.3984375 12.9975 16.3984375 18.4375 16.3984375 C18.4375 22.3384375 18.4375 28.2784375 18.4375 34.3984375 C14.66624047 34.47918612 10.89670007 34.5388193 7.125 34.5859375 C6.05314453 34.61107422 4.98128906 34.63621094 3.87695312 34.66210938 C2.84892578 34.67177734 1.82089844 34.68144531 0.76171875 34.69140625 C-0.18614502 34.7071167 -1.13400879 34.72282715 -2.1105957 34.73901367 C-4.5625 34.3984375 -4.5625 34.3984375 -6.37036133 33.2746582 C-8.11566921 30.52784454 -7.95131945 28.32126737 -7.9609375 25.0859375 C-7.96480469 23.84585937 -7.96867188 22.60578125 -7.97265625 21.328125 C-7.96105469 20.03132813 -7.94945312 18.73453125 -7.9375 17.3984375 C-7.94910156 16.10164063 -7.96070313 14.80484375 -7.97265625 13.46875 C-7.96878906 12.22867187 -7.96492187 10.98859375 -7.9609375 9.7109375 C-7.95755371 8.57269531 -7.95416992 7.43445313 -7.95068359 6.26171875 C-7.5625 3.3984375 -7.5625 3.3984375 -6.32275391 1.52880859 C-4.08122713 0.08938155 -2.65600696 0.01119104 0 0 Z " fill="#D91C31" transform="translate(234.5625,309.6015625)"/>
<path d="M0 0 C0.83402344 -0.00386719 1.66804687 -0.00773437 2.52734375 -0.01171875 C3.82865234 0.00568359 3.82865234 0.00568359 5.15625 0.0234375 C6.02378906 0.01183594 6.89132813 0.00023437 7.78515625 -0.01171875 C9.03619141 -0.00591797 9.03619141 -0.00591797 10.3125 0 C11.45428711 0.00507568 11.45428711 0.00507568 12.61914062 0.01025391 C15.1780638 0.4978723 16.07454898 1.36517585 17.65625 3.3984375 C18.04703556 6.12351548 17.79241953 8.62965706 17.65625 11.3984375 C16.33625 11.3984375 15.01625 11.3984375 13.65625 11.3984375 C12.99625 9.4184375 12.33625 7.4384375 11.65625 5.3984375 C7.36625 5.3984375 3.07625 5.3984375 -1.34375 5.3984375 C-2.06631829 9.87977324 -2.06631829 9.87977324 -2.34375 14.3984375 C-0.55517578 14.45451172 -0.55517578 14.45451172 1.26953125 14.51171875 C2.835969 14.57737782 4.40237384 14.64382518 5.96875 14.7109375 C7.14727539 14.74477539 7.14727539 14.74477539 8.34960938 14.77929688 C9.10693359 14.81474609 9.86425781 14.85019531 10.64453125 14.88671875 C11.68927612 14.92599487 11.68927612 14.92599487 12.75512695 14.96606445 C15.21292399 15.52504205 16.1324697 16.41626765 17.65625 18.3984375 C18.0546875 21.4296875 18.0546875 21.4296875 18.03125 24.8984375 C18.03898437 26.043125 18.04671875 27.1878125 18.0546875 28.3671875 C17.65625 31.3984375 17.65625 31.3984375 16.40283203 33.06298828 C14.22246436 34.73011313 13.03607016 34.78476768 10.3125 34.796875 C9.47847656 34.80074219 8.64445313 34.80460937 7.78515625 34.80859375 C6.48384766 34.79119141 6.48384766 34.79119141 5.15625 34.7734375 C3.85494141 34.79083984 3.85494141 34.79083984 2.52734375 34.80859375 C1.69332031 34.80472656 0.85929688 34.80085938 0 34.796875 C-1.14178711 34.79179932 -1.14178711 34.79179932 -2.30664062 34.78662109 C-4.8655638 34.2990027 -5.76204898 33.43169915 -7.34375 31.3984375 C-7.73453556 28.67335952 -7.47991953 26.16721794 -7.34375 23.3984375 C-6.02375 23.3984375 -4.70375 23.3984375 -3.34375 23.3984375 C-2.68375 25.3784375 -2.02375 27.3584375 -1.34375 29.3984375 C2.94625 29.3984375 7.23625 29.3984375 11.65625 29.3984375 C12.69839691 24.78335976 12.69839691 24.78335976 11.65625 20.3984375 C8.52277506 20.13384975 5.43361087 20.0317333 2.29101562 20.0078125 C-0.99474432 19.89218458 -3.05054223 19.59686632 -5.796875 17.73828125 C-7.76767115 14.75720323 -7.84729041 12.88891147 -7.78125 9.3359375 C-7.77996094 8.29308594 -7.77867187 7.25023437 -7.77734375 6.17578125 C-7.02561841 1.36067569 -4.69726651 0.02088116 0 0 Z " fill="#D91C31" transform="translate(235.34375,350.6015625)"/>
<path d="M0 0 C1.65 0 3.3 0 5 0 C6.92871094 2.00366211 6.92871094 2.00366211 8.734375 4.77734375 C9.39050781 5.76541016 10.04664063 6.75347656 10.72265625 7.77148438 C11.72619141 9.33866211 11.72619141 9.33866211 12.75 10.9375 C14.09868255 12.98846263 15.44762659 15.03925334 16.796875 17.08984375 C17.68391113 18.46450806 17.68391113 18.46450806 18.58886719 19.86694336 C19.82863356 21.89516479 19.82863356 21.89516479 21 23 C21.33 15.41 21.66 7.82 22 0 C23.32 0 24.64 0 26 0 C26 11.22 26 22.44 26 34 C24.35 34 22.7 34 21 34 C18.96362305 31.796875 18.96362305 31.796875 17.01171875 28.75 C16.30595703 27.6671875 15.60019531 26.584375 14.87304688 25.46875 C14.14415093 24.31273971 13.41564018 23.15648647 12.6875 22 C11.94105697 20.84271395 11.19302752 19.68644949 10.44335938 18.53125 C8.61325823 15.697545 6.80458858 12.85002004 5 10 C4.67 17.92 4.34 25.84 4 34 C2.68 34 1.36 34 0 34 C0 22.78 0 11.56 0 0 Z " fill="#D91C31" transform="translate(195,351)"/>
<path d="M0 0 C0.83402344 -0.00386719 1.66804687 -0.00773437 2.52734375 -0.01171875 C3.82865234 0.00568359 3.82865234 0.00568359 5.15625 0.0234375 C6.02378906 0.01183594 6.89132813 0.00023437 7.78515625 -0.01171875 C9.03619141 -0.00591797 9.03619141 -0.00591797 10.3125 0 C11.45428711 0.00507568 11.45428711 0.00507568 12.61914062 0.01025391 C15.1780638 0.4978723 16.07454898 1.36517585 17.65625 3.3984375 C18.04703556 6.12351548 17.79241953 8.62965706 17.65625 11.3984375 C16.33625 11.3984375 15.01625 11.3984375 13.65625 11.3984375 C12.99625 9.4184375 12.33625 7.4384375 11.65625 5.3984375 C7.36625 5.3984375 3.07625 5.3984375 -1.34375 5.3984375 C-2.06631829 9.87977324 -2.06631829 9.87977324 -2.34375 14.3984375 C-0.55517578 14.45451172 -0.55517578 14.45451172 1.26953125 14.51171875 C2.835969 14.57737782 4.40237384 14.64382518 5.96875 14.7109375 C7.14727539 14.74477539 7.14727539 14.74477539 8.34960938 14.77929688 C9.10693359 14.81474609 9.86425781 14.85019531 10.64453125 14.88671875 C11.68927612 14.92599487 11.68927612 14.92599487 12.75512695 14.96606445 C15.21292399 15.52504205 16.1324697 16.41626765 17.65625 18.3984375 C18.0546875 21.4296875 18.0546875 21.4296875 18.03125 24.8984375 C18.03898437 26.043125 18.04671875 27.1878125 18.0546875 28.3671875 C17.65625 31.3984375 17.65625 31.3984375 16.40283203 33.06298828 C14.22246436 34.73011313 13.03607016 34.78476768 10.3125 34.796875 C9.47847656 34.80074219 8.64445312 34.80460937 7.78515625 34.80859375 C6.48384766 34.79119141 6.48384766 34.79119141 5.15625 34.7734375 C3.85494141 34.79083984 3.85494141 34.79083984 2.52734375 34.80859375 C1.69332031 34.80472656 0.85929688 34.80085938 0 34.796875 C-1.14178711 34.79179932 -1.14178711 34.79179932 -2.30664062 34.78662109 C-4.8655638 34.2990027 -5.76204898 33.43169915 -7.34375 31.3984375 C-7.73453556 28.67335952 -7.47991953 26.16721794 -7.34375 23.3984375 C-6.02375 23.3984375 -4.70375 23.3984375 -3.34375 23.3984375 C-2.68375 25.3784375 -2.02375 27.3584375 -1.34375 29.3984375 C2.94625 29.3984375 7.23625 29.3984375 11.65625 29.3984375 C12.69839691 24.78335976 12.69839691 24.78335976 11.65625 20.3984375 C8.52277506 20.13384975 5.43361087 20.0317333 2.29101562 20.0078125 C-0.99474432 19.89218458 -3.05054223 19.59686632 -5.796875 17.73828125 C-7.76767115 14.75720323 -7.84729041 12.88891147 -7.78125 9.3359375 C-7.77996094 8.29308594 -7.77867188 7.25023437 -7.77734375 6.17578125 C-7.02561841 1.36067569 -4.69726651 0.02088116 0 0 Z " fill="#D91C31" transform="translate(10.34375,350.6015625)"/>
<path d="M0 0 C1.65 0 3.3 0 5 0 C6.92871094 2.00366211 6.92871094 2.00366211 8.734375 4.77734375 C9.39050781 5.76541016 10.04664063 6.75347656 10.72265625 7.77148438 C11.72619141 9.33866211 11.72619141 9.33866211 12.75 10.9375 C14.09868255 12.98846263 15.44762659 15.03925334 16.796875 17.08984375 C17.68391113 18.46450806 17.68391113 18.46450806 18.58886719 19.86694336 C19.82863356 21.89516479 19.82863356 21.89516479 21 23 C21.33 15.41 21.66 7.82 22 0 C23.32 0 24.64 0 26 0 C26 11.22 26 22.44 26 34 C24.35 34 22.7 34 21 34 C18.96362305 31.796875 18.96362305 31.796875 17.01171875 28.75 C16.30595703 27.6671875 15.60019531 26.584375 14.87304688 25.46875 C14.14415093 24.31273971 13.41564018 23.15648647 12.6875 22 C11.94105697 20.84271395 11.19302752 19.68644949 10.44335938 18.53125 C8.61325823 15.697545 6.80458858 12.85002004 5 10 C4.67 17.92 4.34 25.84 4 34 C2.68 34 1.36 34 0 34 C0 22.78 0 11.56 0 0 Z " fill="#D91C31" transform="translate(188,310)"/>
<path d="M0 0 C3.733125 -0.061875 7.46625 -0.12375 11.3125 -0.1875 C12.48594971 -0.21481201 13.65939941 -0.24212402 14.8684082 -0.27026367 C15.79484131 -0.27775635 16.72127441 -0.28524902 17.67578125 -0.29296875 C19.0975769 -0.31653442 19.0975769 -0.31653442 20.5480957 -0.34057617 C23 0 23 0 24.80786133 1.1237793 C26.55316921 3.87059296 26.38881945 6.07717013 26.3984375 9.3125 C26.40423828 11.17261719 26.40423828 11.17261719 26.41015625 13.0703125 C26.39855469 14.36710937 26.38695312 15.66390625 26.375 17 C26.38660156 18.29679687 26.39820313 19.59359375 26.41015625 20.9296875 C26.40628906 22.16976563 26.40242188 23.40984375 26.3984375 24.6875 C26.39505371 25.82574219 26.39166992 26.96398437 26.38818359 28.13671875 C26 31 26 31 24.80786133 32.8762207 C22.32986872 34.41655831 20.58229221 34.34114296 17.67578125 34.29296875 C16.74934814 34.28547607 15.82291504 34.2779834 14.8684082 34.27026367 C13.6949585 34.24295166 12.52150879 34.21563965 11.3125 34.1875 C7.579375 34.125625 3.84625 34.06375 0 34 C0 22.78 0 11.56 0 0 Z M4 4 C4 12.58 4 21.16 4 30 C7.898125 30.0928125 7.898125 30.0928125 11.875 30.1875 C12.69210449 30.21481201 13.50920898 30.24212402 14.35107422 30.27026367 C16.236076 30.29217134 18.12076763 30.14898777 20 30 C22.10448454 26.84327318 22.25548261 26.0481891 22.265625 22.4375 C22.26820313 21.55835938 22.27078125 20.67921875 22.2734375 19.7734375 C22.26570313 18.85820312 22.25796875 17.94296875 22.25 17 C22.25773437 16.08476562 22.26546875 15.16953125 22.2734375 14.2265625 C22.26957031 12.90785156 22.26957031 12.90785156 22.265625 11.5625 C22.26336914 10.75941406 22.26111328 9.95632813 22.25878906 9.12890625 C22.12575183 6.70086546 22.12575183 6.70086546 20 4 C17.19359893 3.7775052 14.66883108 3.71911519 11.875 3.8125 C7.976875 3.9053125 7.976875 3.9053125 4 4 Z " fill="#D91C31" transform="translate(131,310)"/>
<path d="M0 0 C1.31871094 -0.00580078 1.31871094 -0.00580078 2.6640625 -0.01171875 C3.57929688 -0.00011719 4.49453125 0.01148438 5.4375 0.0234375 C6.81035156 0.00603516 6.81035156 0.00603516 8.2109375 -0.01171875 C9.09007812 -0.00785156 9.96921875 -0.00398438 10.875 0 C12.07962891 0.00507568 12.07962891 0.00507568 13.30859375 0.01025391 C15.4375 0.3984375 15.4375 0.3984375 17.19775391 1.52880859 C19.01208778 4.26495842 18.82624192 6.44952841 18.8359375 9.7109375 C18.84173828 11.57105469 18.84173828 11.57105469 18.84765625 13.46875 C18.83605469 14.76554687 18.82445312 16.06234375 18.8125 17.3984375 C18.82410156 18.69523437 18.83570313 19.99203125 18.84765625 21.328125 C18.84378906 22.56820313 18.83992188 23.80828125 18.8359375 25.0859375 C18.83255371 26.22417969 18.82916992 27.36242187 18.82568359 28.53515625 C18.4375 31.3984375 18.4375 31.3984375 17.19775391 33.26806641 C14.95622713 34.70749345 13.53100696 34.78568396 10.875 34.796875 C9.99585938 34.80074219 9.11671875 34.80460937 8.2109375 34.80859375 C7.29570312 34.79699219 6.38046875 34.78539062 5.4375 34.7734375 C4.52226562 34.78503906 3.60703125 34.79664063 2.6640625 34.80859375 C1.78492188 34.80472656 0.90578125 34.80085938 0 34.796875 C-1.20462891 34.79179932 -1.20462891 34.79179932 -2.43359375 34.78662109 C-4.5625 34.3984375 -4.5625 34.3984375 -6.32275391 33.26806641 C-8.13708778 30.53191658 -7.95124192 28.34734659 -7.9609375 25.0859375 C-7.96480469 23.84585937 -7.96867188 22.60578125 -7.97265625 21.328125 C-7.96105469 20.03132813 -7.94945312 18.73453125 -7.9375 17.3984375 C-7.94910156 16.10164063 -7.96070313 14.80484375 -7.97265625 13.46875 C-7.96878906 12.22867187 -7.96492187 10.98859375 -7.9609375 9.7109375 C-7.95755371 8.57269531 -7.95416992 7.43445313 -7.95068359 6.26171875 C-7.5625 3.3984375 -7.5625 3.3984375 -6.32275391 1.52880859 C-4.08122713 0.08938155 -2.65600696 0.01119104 0 0 Z M-1.5625 4.3984375 C-3.66698454 7.55516432 -3.81798261 8.3502484 -3.828125 11.9609375 C-3.83070313 12.84007812 -3.83328125 13.71921875 -3.8359375 14.625 C-3.82820312 15.54023438 -3.82046875 16.45546875 -3.8125 17.3984375 C-3.82023438 18.31367188 -3.82796875 19.22890625 -3.8359375 20.171875 C-3.83335937 21.05101562 -3.83078125 21.93015625 -3.828125 22.8359375 C-3.82586914 23.63902344 -3.82361328 24.44210937 -3.82128906 25.26953125 C-3.68825183 27.69757204 -3.68825183 27.69757204 -1.5625 30.3984375 C1.72014763 30.87898146 1.72014763 30.87898146 5.4375 30.7734375 C6.695625 30.78117187 7.95375 30.78890625 9.25 30.796875 C10.301875 30.66539062 11.35375 30.53390625 12.4375 30.3984375 C14.54198454 27.24171068 14.69298261 26.4466266 14.703125 22.8359375 C14.70570313 21.95679688 14.70828125 21.07765625 14.7109375 20.171875 C14.70320313 19.25664062 14.69546875 18.34140625 14.6875 17.3984375 C14.69523437 16.48320312 14.70296875 15.56796875 14.7109375 14.625 C14.70707031 13.30628906 14.70707031 13.30628906 14.703125 11.9609375 C14.70086914 11.15785156 14.69861328 10.35476563 14.69628906 9.52734375 C14.56325183 7.09930296 14.56325183 7.09930296 12.4375 4.3984375 C9.15485237 3.91789354 9.15485237 3.91789354 5.4375 4.0234375 C4.179375 4.01570313 2.92125 4.00796875 1.625 4 C0.573125 4.13148438 -0.47875 4.26296875 -1.5625 4.3984375 Z " fill="#D91C31" transform="translate(170.5625,350.6015625)"/>
<path d="M0 0 C1.31871094 -0.00580078 1.31871094 -0.00580078 2.6640625 -0.01171875 C3.57929687 -0.00011719 4.49453125 0.01148438 5.4375 0.0234375 C6.81035156 0.00603516 6.81035156 0.00603516 8.2109375 -0.01171875 C9.09007813 -0.00785156 9.96921875 -0.00398438 10.875 0 C12.07962891 0.00507568 12.07962891 0.00507568 13.30859375 0.01025391 C15.4375 0.3984375 15.4375 0.3984375 17.19775391 1.52880859 C19.01208778 4.26495842 18.82624192 6.44952841 18.8359375 9.7109375 C18.84173828 11.57105469 18.84173828 11.57105469 18.84765625 13.46875 C18.83605469 14.76554687 18.82445313 16.06234375 18.8125 17.3984375 C18.82410156 18.69523437 18.83570312 19.99203125 18.84765625 21.328125 C18.84378906 22.56820313 18.83992188 23.80828125 18.8359375 25.0859375 C18.83255371 26.22417969 18.82916992 27.36242187 18.82568359 28.53515625 C18.4375 31.3984375 18.4375 31.3984375 17.19775391 33.26806641 C14.95622713 34.70749345 13.53100696 34.78568396 10.875 34.796875 C9.99585937 34.80074219 9.11671875 34.80460937 8.2109375 34.80859375 C7.29570313 34.79699219 6.38046875 34.78539062 5.4375 34.7734375 C4.52226563 34.78503906 3.60703125 34.79664063 2.6640625 34.80859375 C1.78492188 34.80472656 0.90578125 34.80085938 0 34.796875 C-1.20462891 34.79179932 -1.20462891 34.79179932 -2.43359375 34.78662109 C-4.5625 34.3984375 -4.5625 34.3984375 -6.32275391 33.26806641 C-8.13708778 30.53191658 -7.95124192 28.34734659 -7.9609375 25.0859375 C-7.96480469 23.84585937 -7.96867187 22.60578125 -7.97265625 21.328125 C-7.96105469 20.03132813 -7.94945312 18.73453125 -7.9375 17.3984375 C-7.94910156 16.10164063 -7.96070313 14.80484375 -7.97265625 13.46875 C-7.96878906 12.22867187 -7.96492188 10.98859375 -7.9609375 9.7109375 C-7.95755371 8.57269531 -7.95416992 7.43445313 -7.95068359 6.26171875 C-7.5625 3.3984375 -7.5625 3.3984375 -6.32275391 1.52880859 C-4.08122713 0.08938155 -2.65600696 0.01119104 0 0 Z M-1.5625 4.3984375 C-3.66698454 7.55516432 -3.81798261 8.3502484 -3.828125 11.9609375 C-3.83070312 12.84007812 -3.83328125 13.71921875 -3.8359375 14.625 C-3.82820313 15.54023438 -3.82046875 16.45546875 -3.8125 17.3984375 C-3.82023437 18.31367188 -3.82796875 19.22890625 -3.8359375 20.171875 C-3.83335938 21.05101562 -3.83078125 21.93015625 -3.828125 22.8359375 C-3.82586914 23.63902344 -3.82361328 24.44210937 -3.82128906 25.26953125 C-3.68825183 27.69757204 -3.68825183 27.69757204 -1.5625 30.3984375 C1.72014763 30.87898146 1.72014763 30.87898146 5.4375 30.7734375 C6.695625 30.78117187 7.95375 30.78890625 9.25 30.796875 C10.301875 30.66539062 11.35375 30.53390625 12.4375 30.3984375 C14.54198454 27.24171068 14.69298261 26.4466266 14.703125 22.8359375 C14.70570312 21.95679688 14.70828125 21.07765625 14.7109375 20.171875 C14.70320313 19.25664062 14.69546875 18.34140625 14.6875 17.3984375 C14.69523437 16.48320312 14.70296875 15.56796875 14.7109375 14.625 C14.70707031 13.30628906 14.70707031 13.30628906 14.703125 11.9609375 C14.70086914 11.15785156 14.69861328 10.35476563 14.69628906 9.52734375 C14.56325183 7.09930296 14.56325183 7.09930296 12.4375 4.3984375 C9.15485237 3.91789354 9.15485237 3.91789354 5.4375 4.0234375 C4.179375 4.01570313 2.92125 4.00796875 1.625 4 C0.573125 4.13148438 -0.47875 4.26296875 -1.5625 4.3984375 Z " fill="#D91C31" transform="translate(42.5625,350.6015625)"/>
<path d="M0 0 C1.32 0 2.64 0 4 0 C4.02505615 0.80743652 4.0501123 1.61487305 4.07592773 2.44677734 C4.19165487 6.08968917 4.31448635 9.73232726 4.4375 13.375 C4.47681641 14.64601563 4.51613281 15.91703125 4.55664062 17.2265625 C4.61948242 19.04414063 4.61948242 19.04414063 4.68359375 20.8984375 C4.72025146 22.01911621 4.75690918 23.13979492 4.79467773 24.29443359 C4.82596013 26.96712771 4.82596013 26.96712771 6 29 C10.62 29 15.24 29 20 29 C21.36839363 26.26321275 21.21634818 23.95735576 21.31640625 20.8984375 C21.35830078 19.68671875 21.40019531 18.475 21.44335938 17.2265625 C21.48267578 15.95554687 21.52199219 14.68453125 21.5625 13.375 C21.60568359 12.09625 21.64886719 10.8175 21.69335938 9.5 C21.79969886 6.33344652 21.90172833 3.16681247 22 0 C23.32 0 24.64 0 26 0 C26.07418046 4.35990873 26.12861544 8.71948279 26.16479492 13.07983398 C26.17987768 14.56297199 26.20034689 16.04606544 26.22631836 17.52905273 C26.26272616 19.66140745 26.27973073 21.79317235 26.29296875 23.92578125 C26.3086792 25.20880127 26.32438965 26.49182129 26.34057617 27.8137207 C26 31 26 31 24.7668457 32.91723633 C22.52248691 34.292631 21.06416206 34.3873701 18.4375 34.3984375 C17.55835937 34.40230469 16.67921875 34.40617187 15.7734375 34.41015625 C14.85820313 34.39855469 13.94296875 34.38695312 13 34.375 C12.08476563 34.38660156 11.16953125 34.39820313 10.2265625 34.41015625 C9.34742187 34.40628906 8.46828125 34.40242188 7.5625 34.3984375 C6.35787109 34.39336182 6.35787109 34.39336182 5.12890625 34.38818359 C3 34 3 34 1.2331543 32.91723633 C-0.66809071 29.96129156 -0.33557381 27.40519418 -0.29296875 23.92578125 C-0.28872391 23.2419487 -0.28447906 22.55811615 -0.28010559 21.8535614 C-0.26333353 19.67280439 -0.22568657 17.49297691 -0.1875 15.3125 C-0.17245114 13.83269565 -0.15876308 12.3528768 -0.14648438 10.87304688 C-0.11343569 7.24839664 -0.06166446 3.62428906 0 0 Z " fill="#D91C31" transform="translate(93,351)"/>
<path d="M0 0 C1.32 0 2.64 0 4 0 C4.02505615 0.80743652 4.0501123 1.61487305 4.07592773 2.44677734 C4.19165487 6.08968917 4.31448635 9.73232726 4.4375 13.375 C4.47681641 14.64601563 4.51613281 15.91703125 4.55664062 17.2265625 C4.61948242 19.04414063 4.61948242 19.04414063 4.68359375 20.8984375 C4.72025146 22.01911621 4.75690918 23.13979492 4.79467773 24.29443359 C4.82596013 26.96712771 4.82596013 26.96712771 6 29 C10.62 29 15.24 29 20 29 C21.36839363 26.26321275 21.21634818 23.95735576 21.31640625 20.8984375 C21.35830078 19.68671875 21.40019531 18.475 21.44335938 17.2265625 C21.48267578 15.95554687 21.52199219 14.68453125 21.5625 13.375 C21.60568359 12.09625 21.64886719 10.8175 21.69335938 9.5 C21.79969886 6.33344652 21.90172833 3.16681247 22 0 C23.32 0 24.64 0 26 0 C26.07418046 4.35990873 26.12861544 8.71948279 26.16479492 13.07983398 C26.17987768 14.56297199 26.20034689 16.04606544 26.22631836 17.52905273 C26.26272616 19.66140745 26.27973073 21.79317235 26.29296875 23.92578125 C26.3086792 25.20880127 26.32438965 26.49182129 26.34057617 27.8137207 C26 31 26 31 24.7668457 32.91723633 C22.52248691 34.292631 21.06416206 34.3873701 18.4375 34.3984375 C17.55835937 34.40230469 16.67921875 34.40617187 15.7734375 34.41015625 C14.85820313 34.39855469 13.94296875 34.38695312 13 34.375 C12.08476563 34.38660156 11.16953125 34.39820313 10.2265625 34.41015625 C9.34742188 34.40628906 8.46828125 34.40242188 7.5625 34.3984375 C6.35787109 34.39336182 6.35787109 34.39336182 5.12890625 34.38818359 C3 34 3 34 1.2331543 32.91723633 C-0.66809071 29.96129156 -0.33557381 27.40519418 -0.29296875 23.92578125 C-0.28872391 23.2419487 -0.28447906 22.55811615 -0.28010559 21.8535614 C-0.26333353 19.67280439 -0.22568657 17.49297691 -0.1875 15.3125 C-0.17245114 13.83269565 -0.15876308 12.3528768 -0.14648438 10.87304688 C-0.11343569 7.24839664 -0.06166446 3.62428906 0 0 Z " fill="#D91C31" transform="translate(42,310)"/>
<path d="M0 0 C9.24 0 18.48 0 28 0 C28 1.32 28 2.64 28 4 C24.04 4 20.08 4 16 4 C16 13.9 16 23.8 16 34 C14.68 34 13.36 34 12 34 C12 24.1 12 14.2 12 4 C8.04 4 4.08 4 0 4 C0 2.68 0 1.36 0 0 Z " fill="#D91C31" transform="translate(122,351)"/>
<path d="M0 0 C1.32 0 2.64 0 4 0 C4 9.9 4 19.8 4 30 C9.94 30 15.88 30 22 30 C22 31.32 22 32.64 22 34 C14.74 34 7.48 34 0 34 C0 22.78 0 11.56 0 0 Z " fill="#D91C31" transform="translate(67,351)"/>
<path d="M0 0 C1.32 0 2.64 0 4 0 C4 9.9 4 19.8 4 30 C9.94 30 15.88 30 22 30 C22 31.32 22 32.64 22 34 C14.74 34 7.48 34 0 34 C0 22.78 0 11.56 0 0 Z " fill="#D91C31" transform="translate(98,310)"/>
<path d="M0 0 C1.32 0 2.64 0 4 0 C4 11.22 4 22.44 4 34 C2.68 34 1.36 34 0 34 C0 22.78 0 11.56 0 0 Z " fill="#D91C31" transform="translate(153,351)"/>
<path d="M0 0 C1.32 0 2.64 0 4 0 C4 11.22 4 22.44 4 34 C2.68 34 1.36 34 0 34 C0 22.78 0 11.56 0 0 Z " fill="#D91C31" transform="translate(170,310)"/>
<path d="M0 0 C1.32 0 2.64 0 4 0 C4 11.22 4 22.44 4 34 C2.68 34 1.36 34 0 34 C0 22.78 0 11.56 0 0 Z " fill="#D91C31" transform="translate(81,310)"/>
</svg>
